<svg xmlns="http://www.w3.org/2000/svg" xmlns:xlink="http://www.w3.org/1999/xlink" contentScriptType="application/ecmascript" contentStyleType="text/css" height="51px" preserveAspectRatio="none" style="width:237px;height:51px;" version="1.1" viewBox="0 0 237 51" width="237px" zoomAndPan="magnify"><defs><filter height="300%" id="fzy8xiqlgp3fg" width="300%" x="-1" y="-1"><feGaussianBlur result="blurOut" stdDeviation="2.0"/><feColorMatrix in="blurOut" result="blurOut2" type="matrix" values="0 0 0 0 0 0 0 0 0 0 0 0 0 0 0 0 0 0 .4 0"/><feOffset dx="4.0" dy="4.0" in="blurOut2" result="blurOut3"/><feBlend in="SourceGraphic" in2="blurOut3" mode="normal"/></filter></defs><g><!--class OrderLine--><rect fill="#FEFECE" filter="url(#fzy8xiqlgp3fg)" height="32" id="OrderLine" style="stroke: #A80036; stroke-width: 1.5;" width="92" x="6" y="8"/><ellipse cx="21" cy="24" fill="#ADD1B2" rx="11" ry="11" style="stroke: #A80036; stroke-width: 1.0;"/><path d="M23.9688,29.6406 Q23.3906,29.9375 22.75,30.0781 Q22.1094,30.2344 21.4063,30.2344 Q18.9063,30.2344 17.5781,28.5938 Q16.2656,26.9375 16.2656,23.8125 Q16.2656,20.6875 17.5781,19.0313 Q18.9063,17.375 21.4063,17.375 Q22.1094,17.375 22.75,17.5313 Q23.4063,17.6875 23.9688,17.9844 L23.9688,20.7031 Q23.3438,20.125 22.75,19.8594 Q22.1563,19.5781 21.5313,19.5781 Q20.1875,19.5781 19.5,20.6563 Q18.8125,21.7188 18.8125,23.8125 Q18.8125,25.9063 19.5,26.9844 Q20.1875,28.0469 21.5313,28.0469 Q22.1563,28.0469 22.75,27.7813 Q23.3438,27.5 23.9688,26.9219 L23.9688,29.6406 Z "/><text fill="#000000" font-family="sans-serif" font-size="12" lengthAdjust="spacingAndGlyphs" textLength="60" x="35" y="28.1543">OrderLine</text><!--class Batch--><rect fill="#FEFECE" filter="url(#fzy8xiqlgp3fg)" height="32" id="Batch" style="stroke: #A80036; stroke-width: 1.5;" width="68" x="158" y="8"/><ellipse cx="173" cy="24" fill="#ADD1B2" rx="11" ry="11" style="stroke: #A80036; stroke-width: 1.0;"/><path d="M175.9688,29.6406 Q175.3906,29.9375 174.75,30.0781 Q174.1094,30.2344 173.4063,30.2344 Q170.9063,30.2344 169.5781,28.5938 Q168.2656,26.9375 168.2656,23.8125 Q168.2656,20.6875 169.5781,19.0313 Q170.9063,17.375 173.4063,17.375 Q174.1094,17.375 174.75,17.5313 Q175.4063,17.6875 175.9688,17.9844 L175.9688,20.7031 Q175.3438,20.125 174.75,19.8594 Q174.1563,19.5781 173.5313,19.5781 Q172.1875,19.5781 171.5,20.6563 Q170.8125,21.7188 170.8125,23.8125 Q170.8125,25.9063 171.5,26.9844 Q172.1875,28.0469 173.5313,28.0469 Q174.1563,28.0469 174.75,27.7813 Q175.3438,27.5 175.9688,26.9219 L175.9688,29.6406 Z "/><text fill="#000000" font-family="sans-serif" font-size="12" lengthAdjust="spacingAndGlyphs" textLength="36" x="187" y="28.1543">Batch</text><!--link OrderLine to Batch--><path d="M98.19,24 C115.85,24 135.89,24 152.82,24 " fill="none" id="OrderLine-Batch" style="stroke: #A80036; stroke-width: 1.0;"/><polygon fill="#A80036" points="157.97,24,148.97,20,152.97,24,148.97,28,157.97,24" style="stroke: #A80036; stroke-width: 1.0;"/><text fill="#000000" font-family="sans-serif" font-size="13" lengthAdjust="spacingAndGlyphs" textLength="24" x="126.0586" y="37.3674">0..1</text><!--
@startuml ../images/orderline-relation
hide members
left to right direction

class OrderLine
class Batch

OrderLine - -> "0..1" Batch

@enduml

PlantUML version 1.2018.13(Tue Nov 27 02:11:51 KST 2018)
(GPL source distribution)
Java Runtime: Java(TM) SE Runtime Environment
JVM: Java HotSpot(TM) 64-Bit Server VM
Java Version: 15.0.1+9-18
Operating System: Linux
OS Version: 5.4.0-1036-azure
Default Encoding: UTF-8
Language: en
Country: US
--></g></svg>