<svg xmlns="http://www.w3.org/2000/svg" width="510" height="154" shape-rendering="geometricPrecision" version="1.0">
  <defs>
    <filter id="f2" x="0" y="0" width="200%" height="200%">
      <feOffset result="offOut" in="SourceGraphic" dx="5" dy="5"/>
      <feGaussianBlur result="blurOut" in="offOut" stdDeviation="3"/>
      <feBlend in="SourceGraphic" in2="blurOut" mode="normal"/>
    </filter>
  </defs>
  <g stroke-width="1" stroke-linecap="square" stroke-linejoin="round">
    <rect x="0" y="0" width="510" height="154" style="fill: #ffffff"/>
    <path stroke="gray" fill="gray" filter="url(#f2)" d="M190.0 49.0 Q185.0 49.0 185.0 56.0 L185.0 98.0 Q185.0 105.0 190.0 105.0 L320.0 105.0 L320.0 105.0 Q325.0 105.0 325.0 98.0 L325.0 56.0 L325.0 56.0 Q325.0 49.0 320.0 49.0 L190.0 49.0 z"/>
    <path stroke="gray" fill="gray" filter="url(#f2)" d="M25.0 35.0 L25.0 119.0 L115.0 119.0 L115.0 35.0 z"/>
    <path stroke="gray" fill="gray" filter="url(#f2)" d="M395.0 35.0 L485.0 35.0 L485.0 119.0 L395.0 119.0 z"/>
    <path stroke="#000000" stroke-width="1.000000" stroke-linecap="round" stroke-linejoin="round" fill="white" d="M190.0 49.0 Q185.0 49.0 185.0 56.0 L185.0 98.0 Q185.0 105.0 190.0 105.0 L320.0 105.0 L320.0 105.0 Q325.0 105.0 325.0 98.0 L325.0 56.0 L325.0 56.0 Q325.0 49.0 320.0 49.0 L190.0 49.0 z"/>
    <path stroke="#000000" stroke-width="1.000000" stroke-linecap="round" stroke-linejoin="round" fill="white" d="M25.0 35.0 L25.0 119.0 L115.0 119.0 L115.0 35.0 z"/>
    <path stroke="#000000" stroke-width="1.000000" stroke-linecap="round" stroke-linejoin="round" fill="white" d="M395.0 35.0 L485.0 35.0 L485.0 119.0 L395.0 119.0 z"/>
    <path stroke="none" stroke-width="1.000000" stroke-linecap="round" stroke-linejoin="round" fill="#000000" d="M160.0 56.0 L170.0 63.0 L160.0 70.0 z"/>
    <path stroke="none" stroke-width="1.000000" stroke-linecap="round" stroke-linejoin="round" fill="#000000" d="M370.0 56.0 L380.0 63.0 L370.0 70.0 z"/>
    <path stroke="none" stroke-width="1.000000" stroke-linecap="round" stroke-linejoin="round" fill="#000000" d="M160.0 70.0 L170.0 77.0 L160.0 84.0 z"/>
    <path stroke="none" stroke-width="1.000000" stroke-linecap="round" stroke-linejoin="round" fill="#000000" d="M370.0 70.0 L380.0 77.0 L370.0 84.0 z"/>
    <path stroke="none" stroke-width="1.000000" stroke-linecap="round" stroke-linejoin="round" fill="#000000" d="M370.0 84.0 L380.0 91.0 L370.0 98.0 z"/>
    <path stroke="#000000" stroke-width="1.000000" stroke-linecap="round" stroke-linejoin="round" fill="none" d="M135.0 63.0 L165.0 63.0 "/>
    <path stroke="#000000" stroke-width="1.000000" stroke-linecap="round" stroke-linejoin="round" fill="none" d="M135.0 77.0 L165.0 77.0 "/>
    <path stroke="#000000" stroke-width="1.000000" stroke-linecap="round" stroke-linejoin="round" fill="none" d="M375.0 63.0 L345.0 63.0 "/>
    <path stroke="#000000" stroke-width="1.000000" stroke-linecap="round" stroke-linejoin="round" fill="none" d="M375.0 91.0 L345.0 91.0 "/>
    <path stroke="#000000" stroke-width="1.000000" stroke-linecap="round" stroke-linejoin="round" fill="none" d="M375.0 77.0 L345.0 77.0 "/>
    <text x="41" y="68" font-family="Courier" font-weight="bold" font-size="14" stroke="none" fill="#000000"><![CDATA[System]]></text>
    <text x="62" y="82" font-family="Courier" font-weight="bold" font-size="15" stroke="none" fill="#000000"><![CDATA[A ]]></text>
    <text x="208" y="82" font-family="Courier" font-weight="bold" font-size="15" stroke="none" fill="#000000"><![CDATA[Abstraction]]></text>
    <text x="411" y="68" font-family="Courier" font-weight="bold" font-size="14" stroke="none" fill="#000000"><![CDATA[System]]></text>
    <text x="432" y="82" font-family="Courier" font-weight="bold" font-size="15" stroke="none" fill="#000000"><![CDATA[B ]]></text>
  </g>
</svg>